<?xml version="1.0" ?>
<!DOCTYPE svg  PUBLIC '-//W3C//DTD SVG 1.1//EN'  'http://www.w3.org/Graphics/SVG/1.1/DTD/svg11.dtd'>
<!-- Uploaded to: SVG Repo, www.svgrepo.com, Generator: SVG Repo Mixer Tools -->
<svg fill="#000000" width="800px" height="800px" viewBox="0 0 512 512" enable-background="new 0 0 512 512" id="Casual_x5F_exercise" version="1.1" xml:space="preserve" xmlns="http://www.w3.org/2000/svg" xmlns:xlink="http://www.w3.org/1999/xlink">
<g>
<g>
<path d="M474.72,246.061h-73.214v94.157h-9.453v-3.569c0-10.03-4.353-19.545-11.941-26.104c-7.272-6.286-16.803-9.223-26.303-8.15    l-25.19-14.974l-41.844-44.991c-1.025-1.103-2.217-1.995-3.5-2.704l33.448-171.647l0.599-3.067l-61.006-45.981l-6.02,7.986    l56.014,42.218l-27.768,142.503l-43.604-5.202L244.961,90.26L135.548,20.464l-5.379,8.432l72.045,45.957l13.11,71.635    l-67.806,104.295l-34.826-23.383l44.913-80.959L127.812,23.504l-9.719,2.355l28.874,119.144L88.206,250.925    c-2.369-0.945-5.139-0.642-7.267,0.956l-55.776,41.833c-6.984,4.728-9.013,14.326-4.508,21.478l61.332,82.273l30.727,20.39H36.64    v65.116H19.744v10H36.64h182.434h10h172.433h10h63.214h19.024v-10H474.72V246.061z M322.274,295.282l29.48,17.525l2.389-0.374    c6.993-1.022,14.071,1.046,19.429,5.677c5.39,4.658,8.48,11.415,8.48,18.538v3.569h-60.845    c-17.382-23.124-41.097-40.022-68.663-48.877l-3.239-1.042c-11.322-3.637-21.771-9.157-31.132-16.408l7.488-30.892l1.566,0.068    c-0.621,10.875,4.984,18.788,16.002,22.437c10.905,3.611,22.93-1.445,27.975-11.765l1.727-3.531    c0.587-1.201,1.683-2.003,3.005-2.199c1.323-0.195,2.604,0.253,3.516,1.231L322.274,295.282z M209.626,309.156l1.021-4.213    c12.17,4.006,23.343,10.401,32.929,18.787l-30.395-7.452C210.323,315.24,208.732,312.083,209.626,309.156z M261.967,328.24    l-2.137-2.423c-12.589-14.273-28.735-24.81-46.823-30.611l2.606-10.75c9.349,6.667,19.616,11.824,30.633,15.363l3.239,1.042    c22.824,7.332,42.805,20.602,58.305,38.614L261.967,328.24z M276.624,221.578l-3.27,16.774c-4.08,0.949-7.549,3.663-9.404,7.459    l-1.729,3.535c-2.857,5.846-9.67,8.711-15.846,6.665c-7.263-2.405-10.034-6.778-8.981-14.176c0.332-2.087-0.237-4.222-1.567-5.869    c-0.854-1.059-1.975-1.851-3.227-2.313l1.478-17.15L276.624,221.578z M213.723,82.193l20.756,13.24l-11.859,137.558    c-2.963,0.433-5.462,2.639-6.188,5.638l-16.416,67.762c-2.38,8.091,2.162,16.785,10.186,19.437l58.65,14.391h-49.778v77.637    h-49.744l0.092-9.715l-0.086-0.471c-2.366-12.93-10.078-19.736-23.531-20.726l-9.355-26.044l-3.658-61.332    c-0.115-1.938-0.65-3.789-1.502-5.473l93.505-143.824l1.084-1.669L213.723,82.193z M142.066,259.168l-18.31,28.162    c-3.452-1.305-7.309-1.229-10.729,0.325l-3.58,1.627c-5.926,2.688-13.004,0.567-16.467-4.94    c-4.072-6.476-3.429-11.612,2.09-16.649c1.585-1.4,2.504-3.41,2.525-5.527c0.018-1.707-0.559-3.352-1.596-4.678l11.823-21.312    L142.066,259.168z M30.816,301.963l4.88-3.659c6.319,11.162,10.288,23.417,11.729,36.085L29.03,309.72    C27.484,307.1,28.266,303.652,30.816,301.963z M58.021,348.597l0.024-2.341c0.197-19.005-4.741-37.604-14.288-53.996l7.395-5.544    c2.971,11.091,7.609,21.603,13.858,31.343l1.836,2.863C79.79,341.1,86.761,364.051,87.261,387.81L58.021,348.597z     M125.694,414.467l-28.51-18.918c1.006-28.417-6.535-56.04-21.921-80.025l-1.836-2.863c-6.421-10.01-10.979-20.912-13.587-32.46    l25.439-19.074l1.164,1.048c-7.397,7.995-8.107,17.667-1.929,27.492c6.113,9.724,18.611,13.473,29.068,8.72l3.578-1.625    c1.219-0.554,2.574-0.475,3.718,0.215c1.146,0.69,1.849,1.852,1.928,3.188l3.744,62.766l12.173,33.889h3.517    c12.199,0,15.692,4.653,17.171,12.197l-0.084,8.84h-28.502C129.812,417.189,128.138,416.088,125.694,414.467z M46.64,482.971    v-55.116h81.224h41.371h49.839v12.728h-81.984v10h81.984v11.194h-97.866v10h97.866v11.194H46.64z M229.073,482.971v-65.116    v-67.637h80.534h82.445h9.453v111.559H273.08v10h128.426v11.194H229.073z M411.506,482.971V340.218v-84.157h53.214v184.521    h-30.986v10h30.986v11.194h-36.131v10h36.131v11.194H411.506z"/>
<polygon points="107.778,304.628 97.843,305.761 104.56,364.625 119.935,397.154 128.976,392.881 114.308,361.848   "/>
<polygon points="263.753,269.443 305.791,310.009 306.386,310.584 338.944,325.897 343.2,316.849 312.14,302.238 270.696,262.248       "/>
<rect height="10" width="18.003" x="88.089" y="461.776"/>
<rect height="82.311" transform="matrix(0.6082 0.7938 -0.7938 0.6082 432.5014 -64.2759)" width="10" x="276.364" y="364.842"/>
<rect height="68.561" transform="matrix(0.6082 0.7938 -0.7938 0.6082 463.1803 -126.4329)" width="10" x="354.67" y="371.716"/>
<rect height="10" transform="matrix(-0.7937 0.6083 -0.6083 -0.7937 806.8327 558.8966)" width="30.099" x="293.607" y="411.246"/>
<rect height="10" width="15.297" x="243.089" y="461.776"/>
</g>
</g>
</svg>