<?xml version="1.0" standalone="no"?>
<!DOCTYPE svg PUBLIC "-//W3C//DTD SVG 20010904//EN"
 "http://www.w3.org/TR/2001/REC-SVG-20010904/DTD/svg10.dtd">
<svg version="1.0" xmlns="http://www.w3.org/2000/svg"
 width="1215.000000pt" height="1280.000000pt" viewBox="0 0 1215.000000 1280.000000"
 preserveAspectRatio="xMidYMid meet">
<metadata>
Created by potrace 1.15, written by Peter Selinger 2001-2017
</metadata>
<g transform="translate(0.000000,1280.000000) scale(0.100000,-0.100000)"
fill="#000000" stroke="none">
<path d="M2390 12794 c-100 -12 -233 -40 -314 -66 -189 -61 -277 -121 -306
-208 -14 -42 -19 -47 -80 -71 -36 -14 -86 -44 -111 -67 -54 -48 -85 -108 -129
-253 -18 -57 -52 -156 -76 -221 -89 -234 -88 -230 -89 -608 0 -290 3 -343 18
-392 25 -83 21 -134 -24 -309 l-42 -158 -51 -17 c-79 -26 -199 -92 -221 -122
-15 -21 -21 -51 -27 -147 -7 -128 -13 -150 -97 -385 -74 -203 -115 -413 -140
-712 -6 -65 -15 -126 -21 -137 -5 -11 -10 -81 -10 -158 0 -154 -16 -285 -56
-454 -64 -279 -41 -431 124 -801 79 -176 127 -259 222 -378 76 -97 131 -178
180 -265 46 -84 120 -259 112 -266 -4 -4 -61 -28 -127 -54 -66 -26 -136 -56
-155 -67 -48 -29 -108 -87 -127 -122 -47 -91 -77 -297 -53 -372 36 -111 99
-137 257 -104 53 11 98 20 100 20 1 0 3 -15 3 -34 0 -33 1 -34 90 -66 78 -28
91 -36 95 -59 3 -14 11 -39 17 -56 6 -16 13 -52 17 -80 5 -46 9 -51 39 -61 28
-9 38 -20 56 -65 12 -30 39 -81 59 -114 20 -33 37 -63 37 -66 0 -4 -28 -12
-62 -18 -80 -16 -282 -78 -328 -101 -60 -30 -66 -52 -51 -193 21 -201 40 -326
67 -442 15 -60 34 -153 44 -205 33 -176 83 -339 180 -580 23 -58 62 -161 85
-230 23 -69 64 -172 90 -230 66 -145 155 -358 155 -369 0 -15 -129 -39 -325
-61 -217 -25 -296 -40 -440 -85 -61 -19 -142 -41 -180 -50 -39 -8 -88 -20
-110 -26 -34 -8 -46 -7 -80 11 -21 11 -50 20 -63 20 -43 0 -312 -59 -344 -76
-18 -9 -60 -44 -93 -78 -80 -81 -100 -143 -99 -301 1 -124 19 -188 82 -283 67
-102 142 -141 249 -128 96 11 349 65 405 86 45 17 56 26 73 62 19 39 25 44 70
52 28 4 150 30 273 57 219 48 551 109 595 109 14 0 50 -24 89 -59 73 -64 122
-87 264 -121 48 -12 139 -39 203 -61 64 -22 168 -49 231 -60 63 -11 140 -32
170 -46 30 -13 100 -38 155 -53 55 -16 146 -45 203 -64 57 -19 162 -47 235
-61 73 -15 202 -44 287 -65 85 -21 205 -48 265 -60 61 -12 137 -31 170 -41 33
-10 104 -25 157 -34 124 -20 257 -54 383 -99 54 -19 102 -33 106 -30 11 6 409
-67 584 -107 210 -49 406 -87 532 -104 65 -9 197 -36 293 -60 271 -68 481
-107 1125 -210 193 -31 439 -72 548 -91 264 -46 828 -169 880 -192 l41 -18 1
-135 c1 -114 4 -142 24 -191 48 -122 128 -205 241 -250 44 -17 77 -22 165 -22
103 0 122 3 295 51 102 29 199 57 214 63 45 17 85 49 110 89 21 33 30 37 107
55 202 44 541 152 829 263 187 73 267 100 560 194 124 39 267 90 318 112 69
29 96 37 105 28 21 -21 131 -12 226 19 169 55 204 84 247 209 50 143 40 301
-27 435 -57 115 -186 239 -226 217 -10 -5 -90 -25 -178 -46 -254 -59 -314 -86
-349 -159 -11 -24 -26 -38 -44 -42 -49 -10 -235 -85 -313 -124 -42 -22 -119
-51 -172 -65 -53 -14 -106 -29 -119 -34 -16 -6 -26 -4 -33 5 -11 15 -156 34
-262 34 -35 0 -63 3 -63 8 0 4 21 48 46 97 81 157 244 582 295 770 17 61 57
187 90 280 66 184 122 383 113 397 -4 5 -16 51 -29 102 -43 173 -132 361 -273
576 -41 63 -113 177 -159 254 -46 76 -100 159 -121 185 -21 25 -49 62 -62 81
-14 19 -55 67 -91 106 -37 39 -88 103 -113 142 -25 39 -77 102 -117 139 -39
37 -127 132 -196 210 -69 79 -173 184 -232 235 -58 51 -150 135 -204 187 l-98
96 -41 130 c-22 71 -52 162 -65 200 -14 39 -71 207 -128 375 -106 315 -183
510 -213 543 -21 23 -60 44 -126 67 l-50 16 -43 195 c-23 107 -65 273 -92 369
-28 96 -62 222 -75 280 -14 58 -35 137 -46 175 -11 39 -34 135 -50 215 -17 80
-48 210 -70 290 -40 151 -117 481 -170 730 -17 80 -44 194 -61 254 -16 60 -39
168 -50 240 -11 72 -24 148 -29 169 -8 37 -7 38 31 58 58 29 108 78 233 224
168 197 189 223 249 316 84 128 256 494 276 584 40 180 73 394 86 545 8 96 19
191 25 210 16 57 12 93 -19 141 -25 40 -36 48 -95 67 -95 31 -124 29 -175 -14
-54 -46 -87 -114 -102 -204 l-12 -72 -46 7 c-25 3 -89 15 -142 25 -223 44
-253 45 -420 22 -85 -11 -188 -24 -229 -27 -113 -10 -532 -92 -586 -115 -105
-45 -153 -105 -234 -295 -26 -60 -75 -168 -108 -240 -78 -168 -136 -338 -169
-495 -23 -107 -27 -150 -27 -300 -1 -197 8 -239 72 -340 88 -139 165 -195 322
-235 68 -18 220 -22 335 -10 75 8 68 16 95 -107 19 -88 18 -101 -5 -91 -9 3
-22 0 -30 -7 -29 -24 -149 -5 -319 50 -191 61 -260 69 -431 46 -237 -32 -301
-22 -635 94 -260 90 -402 147 -417 168 -21 26 -15 86 15 143 37 70 276 448
357 564 35 50 98 133 140 185 42 52 89 122 104 155 47 98 107 283 162 493 29
108 66 229 82 267 16 39 32 91 34 116 4 42 2 47 -35 81 -69 62 -191 65 -258 6
-46 -41 -63 -77 -114 -238 -76 -244 -213 -587 -268 -674 -29 -46 -181 -248
-331 -441 -176 -226 -246 -339 -287 -464 -19 -59 -21 -49 45 -229 56 -156 167
-260 370 -346 42 -18 76 -38 76 -43 0 -6 -54 -69 -120 -140 -66 -72 -148 -162
-183 -201 -46 -52 -122 -115 -283 -231 -129 -94 -226 -158 -235 -154 -20 8
-404 413 -404 427 0 23 -69 153 -113 212 l-45 61 44 47 c24 26 44 55 44 64 -1
33 -27 89 -84 182 -32 52 -106 194 -165 315 -212 433 -448 825 -506 840 -11 2
-94 23 -185 45 -212 52 -542 148 -555 161 -18 18 -11 239 8 282 l17 37 81 0
c132 0 157 23 183 174 9 54 31 121 55 174 81 180 89 232 54 373 -26 109 -26
110 -9 180 l17 69 -26 63 c-23 53 -28 85 -35 217 -5 85 -14 169 -21 185 -6 17
-12 64 -13 105 -1 62 -6 83 -28 121 -43 74 -122 129 -237 166 -45 14 -278 26
-351 17z m218 -971 c5 -18 -20 -16 -44 2 -18 15 -18 15 10 13 16 -2 31 -9 34
-15z m332 7 c0 -5 -4 -10 -10 -10 -5 0 -10 5 -10 10 0 6 5 10 10 10 6 0 10 -4
10 -10z m-255 -20 c3 -5 1 -10 -4 -10 -6 0 -11 5 -11 10 0 6 2 10 4 10 3 0 8
-4 11 -10z m155 -411 c58 -12 106 -23 108 -24 1 -1 0 -9 -3 -17 -7 -18 -140
-32 -213 -22 -47 6 -48 6 -49 45 -2 36 0 39 25 39 15 0 74 -10 132 -21z m840
-1399 c6 -11 8 -20 6 -20 -3 0 -10 9 -16 20 -6 11 -8 20 -6 20 3 0 10 -9 16
-20z m40 -70 c6 -11 8 -20 6 -20 -3 0 -10 9 -16 20 -6 11 -8 20 -6 20 3 0 10
-9 16 -20z m3190 -1175 c187 -53 271 -68 369 -63 l75 3 13 -45 c7 -25 20 -50
28 -56 12 -9 6 -13 -31 -18 -26 -3 -64 -6 -85 -6 -37 0 -39 1 -45 40 -5 32
-12 42 -31 46 -37 10 -90 -2 -139 -31 -38 -23 -44 -30 -44 -60 0 -50 -34 -85
-95 -96 -28 -5 -56 -17 -63 -27 -20 -25 -9 -106 22 -172 14 -30 26 -72 26 -93
0 -52 25 -97 53 -97 20 0 26 -10 45 -76 l23 -76 -22 -35 c-19 -30 -21 -45 -16
-106 3 -40 17 -103 30 -142 45 -125 49 -150 32 -191 -17 -40 -11 -62 11 -43 8
6 16 10 17 8 4 -5 118 -477 143 -589 9 -41 23 -85 31 -97 25 -38 79 -56 147
-50 51 5 58 3 44 -7 -52 -38 28 -28 189 24 67 22 135 40 152 40 28 0 31 -4 60
-92 31 -95 91 -311 91 -328 0 -5 -24 -25 -52 -43 -98 -63 -172 -171 -185 -269
-3 -22 -12 -42 -19 -45 -8 -3 -34 7 -58 21 -25 14 -57 26 -73 26 -29 0 -73 21
-158 74 -31 19 -61 29 -89 30 -36 1 -48 7 -72 35 -33 39 -110 91 -135 91 -36
0 -67 75 -145 344 -65 225 -68 241 -95 455 -25 208 -82 532 -119 681 -16 63
-34 151 -40 195 -13 93 -104 506 -156 710 -20 77 -37 145 -38 150 -1 9 50 14
214 23 19 1 104 -18 190 -43z m-5526 -197 c3 -13 15 -70 26 -128 12 -57 44
-188 72 -290 27 -102 83 -331 124 -510 41 -179 90 -383 108 -455 19 -71 40
-164 46 -205 7 -41 23 -104 36 -139 l24 -63 -28 7 c-76 19 -117 63 -187 205
-26 52 -66 120 -88 150 -54 71 -98 176 -192 451 -42 123 -96 265 -120 316 -41
88 -43 95 -40 175 3 94 64 323 117 441 29 63 33 67 64 67 27 0 35 -5 38 -22z
m4356 -913 c0 -8 20 -75 44 -147 44 -134 189 -440 286 -603 48 -81 61 -112
126 -290 20 -55 54 -134 74 -176 53 -105 174 -409 199 -498 16 -58 18 -83 11
-120 -5 -25 -9 -59 -8 -76 0 -16 -7 -50 -17 -75 -14 -38 -16 -70 -13 -200 4
-133 7 -162 26 -204 25 -55 22 -61 -43 -87 -38 -15 -113 -78 -234 -194 -118
-113 -176 -197 -215 -309 -5 -14 -18 14 -47 100 -23 65 -101 243 -174 394
-154 316 -194 428 -259 721 -57 256 -85 350 -136 459 -22 47 -44 105 -49 128
-11 50 -38 84 -94 115 l-39 22 7 101 c5 68 4 108 -4 122 -10 19 -2 30 72 104
116 115 189 218 277 388 79 154 190 339 203 340 4 0 7 -7 7 -15z m2070 -865
c0 -12 -27 -12 -55 0 -16 7 -13 9 18 9 20 1 37 -3 37 -9z m-127 -31 c7 0 -17
-9 -53 -19 -86 -25 -96 -24 -35 6 28 13 56 22 63 19 8 -3 19 -5 25 -6z m-538
-581 c56 -42 73 -71 55 -93 -11 -13 -11 -18 1 -31 13 -12 19 -11 49 11 34 25
80 34 80 15 0 -5 -6 -10 -14 -10 -22 0 -66 -40 -66 -61 0 -19 2 -18 33 5 19
15 43 26 54 26 21 0 21 0 2 -50 -36 -95 -22 -133 24 -64 16 25 45 53 63 61 36
18 69 11 60 -12 -14 -37 -18 -113 -6 -120 7 -4 16 -2 20 6 55 97 75 111 115
85 13 -9 32 -16 41 -16 23 0 15 -32 -56 -254 -32 -99 -61 -200 -65 -223 l-7
-43 -76 0 c-207 0 -415 -22 -581 -61 -90 -22 -164 -38 -165 -37 -37 62 -63 80
-163 112 -69 23 -69 43 0 76 41 20 56 34 72 67 19 41 21 42 69 43 49 0 50 0
148 103 55 56 116 126 135 155 36 52 36 53 24 106 -12 53 -11 56 25 128 37 75
60 108 76 108 5 0 29 -15 53 -32z m-5240 -98 c7 -31 1 -50 -16 -50 -5 0 -40
14 -77 30 -79 36 -72 50 25 50 60 0 62 -1 68 -30z m5509 -67 c-32 -24 -42 -16
-23 18 9 17 13 18 26 8 13 -12 13 -14 -3 -26z m135 -32 c10 -7 8 -12 -10 -24
-27 -19 -33 -16 -24 12 7 23 13 25 34 12z m-2843 -327 c16 -20 22 -70 34 -249
10 -160 15 -181 79 -348 23 -59 41 -111 41 -116 0 -5 -89 25 -197 66 -456 173
-709 264 -727 259 -11 -3 -20 1 -23 12 -2 10 -34 29 -76 46 -57 24 -67 31 -52
37 53 20 241 71 330 89 119 23 212 49 281 79 47 20 51 26 63 70 6 26 9 55 5
66 -7 17 -1 18 112 11 88 -5 122 -11 130 -22z m484 -1458 c144 -43 145 -44
172 -87 15 -23 27 -44 25 -45 -4 -4 -201 34 -272 52 -52 14 -65 22 -100 66
-75 95 -74 90 -19 73 27 -9 114 -35 194 -59z m1507 -625 c21 -13 33 -31 38
-53 9 -41 32 -68 59 -68 22 0 54 -16 46 -23 -3 -2 -41 -10 -85 -16 -81 -11
-127 -34 -133 -64 -3 -14 5 -13 50 7 60 27 118 40 118 26 0 -5 -19 -21 -42
-37 -50 -33 -68 -81 -26 -69 12 4 52 10 88 13 62 6 64 5 50 -12 -8 -10 -45
-38 -81 -61 -37 -24 -69 -50 -72 -58 -14 -35 18 -24 94 33 102 78 138 82 202
22 l42 -39 -50 -7 c-58 -8 -135 -39 -135 -54 0 -15 20 -14 68 3 51 18 132 31
132 21 0 -5 -15 -27 -34 -50 -35 -43 -56 -95 -38 -95 5 0 26 14 47 30 23 19
49 30 68 30 l31 0 -42 -31 c-80 -59 -39 -79 64 -32 81 37 213 44 294 14 47
-17 51 -20 25 -20 -89 -3 -160 -54 -204 -150 -28 -59 -36 -63 -191 -85 -58 -9
-123 -21 -144 -27 -47 -13 -93 -56 -101 -95 -4 -16 -8 -35 -11 -41 -2 -10 -44
-12 -181 -7 -141 5 -195 3 -260 -9 -63 -13 -95 -14 -144 -6 -77 12 -79 13 -79
50 0 84 -105 186 -213 208 -30 6 -32 9 -29 46 5 69 20 102 53 115 41 17 94 82
115 141 13 37 22 48 34 44 21 -7 141 41 158 63 7 9 12 44 12 81 0 51 5 75 23
103 27 45 104 128 119 128 5 0 23 11 40 25 26 22 39 25 111 25 63 0 89 -4 114
-19z m142 -235 c9 -11 3 -15 -30 -20 -52 -8 -59 -2 -22 18 35 19 38 19 52 2z
m299 -257 c-13 -4 -39 -7 -58 -8 l-35 0 34 30 33 31 25 -24 25 -23 -24 -6z
m105 -39 c-9 -9 -116 -41 -120 -36 -6 6 49 38 76 46 29 8 57 1 44 -10z m-4213
-1184 c41 -13 71 -24 65 -25 -5 0 -44 10 -85 23 -41 13 -70 24 -65 25 6 0 44
-10 85 -23z m140 -41 c19 -7 28 -13 20 -13 -8 0 -31 6 -50 13 -19 7 -28 13
-20 13 8 0 31 -6 50 -13z m67 -21 c-3 -3 -12 -4 -19 -1 -8 3 -5 6 6 6 11 1 17
-2 13 -5z"/>
</g>
</svg>
