<?xml version="1.0" standalone="no"?>
<!DOCTYPE svg PUBLIC "-//W3C//DTD SVG 20010904//EN"
 "http://www.w3.org/TR/2001/REC-SVG-20010904/DTD/svg10.dtd">
<svg version="1.0" xmlns="http://www.w3.org/2000/svg"
 width="1280.000000pt" height="1199.000000pt" viewBox="0 0 1280.000000 1199.000000"
 preserveAspectRatio="xMidYMid meet">
<metadata>
Created by potrace 1.15, written by Peter Selinger 2001-2017
</metadata>
<g transform="translate(0.000000,1199.000000) scale(0.100000,-0.100000)"
fill="#000000" stroke="none">
<path d="M4452 11980 c-164 -23 -310 -78 -405 -153 -166 -131 -326 -371 -363
-549 -49 -229 52 -586 268 -950 54 -92 71 -102 172 -104 l81 -1 -2 -73 c-3
-89 -16 -157 -55 -275 -44 -136 -75 -199 -166 -335 -96 -144 -222 -394 -282
-559 -35 -96 -56 -135 -136 -250 -122 -173 -231 -349 -327 -526 -88 -162 -232
-490 -248 -566 -26 -123 16 -278 90 -327 82 -54 380 -124 619 -145 l132 -11 0
-52 c0 -145 -56 -295 -163 -440 -146 -197 -208 -398 -222 -719 -6 -159 -22
-362 -31 -407 -5 -23 2 -31 50 -65 41 -29 54 -43 50 -58 -2 -11 -28 -123 -58
-250 -67 -282 -83 -363 -96 -484 -6 -52 -12 -97 -14 -98 -2 -2 -111 1 -242 6
-477 21 -999 -24 -1212 -105 -159 -60 -395 -114 -503 -114 -67 0 -178 20 -341
61 -131 33 -186 36 -228 14 -49 -25 -53 -45 -60 -265 -7 -237 -7 -236 -103
-357 -117 -148 -211 -317 -242 -438 -17 -67 -20 -201 -5 -289 21 -128 76 -186
144 -153 52 24 151 122 229 226 148 198 348 417 447 492 79 59 184 113 265
136 55 15 156 17 1150 17 l1090 1 37 23 c56 35 167 159 242 271 117 173 315
584 396 821 20 59 45 109 65 133 18 21 47 64 64 96 l31 59 38 -9 c34 -7 55 -6
105 8 12 3 17 -2 17 -19 0 -13 9 -37 19 -54 29 -48 139 -161 179 -185 21 -13
114 -97 207 -188 202 -197 279 -265 360 -315 34 -21 123 -101 202 -182 141
-141 144 -145 202 -266 69 -143 131 -323 195 -568 26 -96 58 -220 73 -275 72
-276 220 -568 393 -780 78 -96 135 -181 188 -283 l44 -87 -6 -165 c-3 -91 -8
-215 -12 -277 l-6 -111 43 -22 c106 -55 171 -73 264 -73 55 0 113 6 150 16 90
26 230 23 291 -5 l49 -23 -3678 -5 -3679 -5 -63 -67 c-85 -89 -115 -177 -122
-348 -6 -133 10 -216 56 -308 l30 -59 -55 -126 c-30 -70 -54 -131 -54 -137 0
-6 53 -10 140 -10 l140 0 0 -145 0 -145 300 0 300 0 0 145 0 145 2245 0 2244
0 3 -142 3 -143 297 -3 297 -2 3 142 3 143 1783 3 c980 1 1782 0 1782 -3 0 -2
-20 -60 -45 -128 -25 -69 -45 -132 -45 -141 0 -15 136 -16 1676 -16 1592 0
1676 1 1672 18 -19 70 -466 1280 -491 1327 -46 88 -121 160 -187 179 -119 35
-404 70 -677 83 l-143 6 0 101 c0 56 5 345 11 644 13 620 17 581 -73 792 -165
388 -602 1075 -1310 2060 -89 124 -243 372 -527 851 -347 585 -403 683 -412
735 -19 102 4 241 57 346 28 55 28 55 100 74 76 20 193 81 284 150 92 70 354
246 515 346 157 97 260 155 487 271 103 53 229 122 280 154 93 58 93 58 113
120 l20 63 131 0 c224 0 443 19 489 42 47 24 201 138 262 194 41 38 42 41 52
129 14 119 31 466 31 639 0 135 -1 140 -30 195 -34 63 -110 167 -173 236 l-42
47 -600 -394 c-330 -217 -701 -460 -823 -541 l-224 -147 34 -48 c19 -26 59
-80 89 -121 l54 -74 -25 -18 c-14 -10 -106 -78 -205 -150 -252 -185 -536 -362
-803 -498 -167 -86 -236 -172 -231 -287 l3 -55 -58 -47 c-146 -121 -226 -303
-226 -518 0 -93 25 -175 111 -369 109 -243 362 -682 612 -1058 312 -472 1512
-2356 1533 -2407 24 -60 48 -188 64 -350 15 -141 25 -759 15 -940 l-7 -145
-141 -3 c-179 -3 -304 -17 -435 -47 -188 -45 -283 -103 -365 -225 -29 -43 -35
-48 -40 -30 -5 20 -8 20 -736 20 l-731 0 0 33 c0 25 -9 42 -37 70 -39 37 -142
89 -203 102 -85 17 -226 111 -360 240 -47 45 -129 116 -182 158 -72 57 -110
95 -146 149 -98 148 -166 290 -242 513 -83 245 -362 944 -516 1295 -75 172
-235 490 -339 675 -37 66 -83 165 -102 220 -83 240 -306 629 -526 919 -34 44
-57 81 -51 83 24 8 75 45 80 57 3 9 -42 74 -113 163 -228 284 -337 440 -418
598 -65 129 -85 195 -85 290 l0 82 96 12 c103 14 171 31 247 63 60 26 62 49 7
80 -22 13 -40 26 -40 29 0 4 22 9 49 13 59 8 84 32 80 78 -2 20 4 44 14 58 25
35 22 77 -7 103 l-25 22 37 10 c34 10 37 14 40 51 2 32 -2 44 -23 64 -26 24
-29 25 -178 22 -84 -1 -168 2 -187 7 l-35 8 28 12 c16 6 66 11 112 11 81 0
135 11 135 28 0 4 -13 15 -28 24 -16 10 -55 38 -86 64 -55 46 -60 48 -120 47
-34 0 -71 -3 -82 -7 -18 -6 -19 0 -15 196 5 278 -23 551 -79 766 -40 158 -172
518 -234 641 -51 101 -70 187 -71 321 0 84 4 136 14 158 7 17 14 32 16 32 1 0
16 -7 33 -15 43 -22 150 -43 257 -51 l90 -6 61 64 c69 74 107 135 135 215 11
33 36 74 60 100 41 45 42 46 36 108 l-5 63 34 6 c38 8 74 47 74 82 0 14 -24
49 -64 92 -51 55 -66 80 -77 123 -15 62 -18 249 -5 392 l8 99 27 -5 c14 -2 54
-10 88 -17 59 -13 65 -13 90 6 57 42 68 83 68 254 0 149 -1 157 -28 212 -35
70 -112 143 -198 185 -101 50 -338 111 -579 149 -114 18 -420 26 -508 14z
m-679 -4272 c-5 -10 -15 -10 -32 1 -11 7 -10 13 5 34 l19 25 6 -26 c3 -15 4
-30 2 -34z"/>
</g>
</svg>
